<svg width="303" height="229" viewBox="0 0 303 229" fill="none" xmlns="http://www.w3.org/2000/svg">
<path fill-rule="evenodd" clip-rule="evenodd" d="M9.5 229C85.163 229 225.5 193.663 225.5 118C225.5 114.846 225.723 111.75 226.146 108.712C224.987 109.326 223.631 109.596 222.231 109.406C218.674 108.922 216.183 105.645 216.667 102.088L222.442 59.672L0.0708008 228.748C2.68726 228.916 5.81519 229 9.5 229ZM84.0593 148.558C89.6118 139.22 92.9999 129.039 92.9999 118C92.9999 42.337 202.837 0 278.5 0C315.134 0 303.869 9.9248 282.5 28.7516C265.561 43.6758 242.272 64.194 231.461 89.7966L237.441 45.8769C237.925 42.3198 235.434 39.0437 231.877 38.5594L173.912 30.6674C170.355 30.1831 167.079 32.6741 166.594 36.2311C166.11 39.7881 168.601 43.0643 172.158 43.5486L214.574 49.3236L84.0593 148.558Z" fill="#325F32"/>
</svg>
